When his idyllic life is threatened by a high-tech assassin, former black-ops agent Frank Moses reassembles his old team in a last ditch effort to survive.

Genre:Action | Comedy
Language:English  http://www.imdb.com/title/tt1245526/
Source:DvDScr Jekyll.Thx
 
http://www.starshare.ro/bitbucket/Red%202010%20DvDScr%20XviD%20Feel-Free.avi_snapshot_00.05.55_%5B2010.10.14_19.27.36%5D.jpg
 
http://www.starshare.ro/bitbucket/Red%202010%20DvDScr%20XviD%20Feel-Free.avi_snapshot_00.19.32_%5B2010.10.14_19.27.00%5D.jpg
 
http://www.starshare.ro/bitbucket/Red%202010%20DvDScr%20XviD%20Feel-Free.avi_snapshot_00.26.10_%5B2010.10.14_19.27.02%5D.jpg
 
http://www.starshare.ro/bitbucket/Red%202010%20DvDScr%20XviD%20Feel-Free.avi_snapshot_01.00.57_%5B2010.10.14_19.27.06%5D.jpg
 
http://www.starshare.ro/bitbucket/Red%202010%20DvDScr%20XviD%20Feel-Free.avi_snapshot_01.23.00_%5B2010.10.14_19.27.20%5D.jpg
 
http://www.youtube.com/watch?v=rMCh4etBbkU&feature=player_embedded

General
Complete name :Red 2010 DvDScr XviD Feel-Free
Format : AVI
Format/Info : Audio Video Interleave
File size : 1.11 GiB
Duration : 2h 1mn
Overall bit rate : 1 310 Kbps
Video #0
ID : 0
Format : MPEG-4 Visual
Format profile : AdvancedSimple@L5
Format settings, BVOP : Yes
Format settings, QPel : No
Format settings, GMC : No warppoints
Format settings, Matrix : Default (H.263)
Muxing mode : Packed bitstream
Codec ID : XVID
Codec ID/Hint : XviD
Duration : 2h 1mn
Bit rate : 852 Kbps
Width : 688 pixels
Height : 288 pixels
Display aspect ratio : 2.35:1
Frame rate : 23.976 fps
Resolution : 24 bits
Colorimetry : 4:2:0
Scan type : Progressive
Bits/(Pixel*Frame) : 0.179
Stream size : 740 MiB (65%)
Writing library : XviD 1.2.1 (UTC 2008-12-04)
Audio #1
ID : 1
Format : AC-3
Format/Info : Audio Coding 3
Codec ID : 2000
Duration : 2h 1mn
Bit rate mode : Constant
Bit rate : 448 Kbps
Channel(s) : 6 channels
Channel positions : Front: L C R, Surround: L R, LFE
Sampling rate : 48.0 KHz
Stream size : 389 MiB (34%)
Alignment : Split accross interleaves
Interleave, duration : 42 ms (1.00 video frame)
Interleave, preload duration : 500 ms
